<svg width="25" height="24" viewBox="0 0 25 24" fill="none" xmlns="http://www.w3.org/2000/svg">
<g clip-path="url(#clip0_200_728)">
<path d="M18.6665 11.4462C18.8511 11.7231 19.0357 12 19.128 12.4615H16.1742C16.1742 12.3692 16.1742 12.1846 16.2665 12C16.3588 11.8154 16.3588 11.7231 16.5434 11.5385C16.6357 11.3538 16.8204 11.2615 17.005 11.1692C17.1896 11.0769 17.4665 10.9846 17.7434 10.9846C18.1127 11.0769 18.4819 11.1692 18.6665 11.4462ZM10.1742 10.8C10.3588 10.6154 10.5434 10.3385 10.5434 9.96923C10.5434 9.78462 10.5434 9.6 10.4511 9.41538C10.3588 9.32308 10.2665 9.13846 10.1742 9.13846C10.0819 9.04615 9.89727 9.04615 9.71266 8.95385H7.31266V11.0769H9.34343C9.62035 11.0769 9.89727 10.9846 10.1742 10.8ZM9.43573 12.3692H7.31266V14.8615H9.43573C9.62035 14.8615 9.80497 14.8615 9.98958 14.7692C10.1742 14.7692 10.3588 14.6769 10.4511 14.5846C10.5434 14.4923 10.728 14.4 10.8203 14.2154C10.9127 14.0308 10.9127 13.8462 10.9127 13.6615C10.9127 13.2 10.8203 12.8308 10.5434 12.6462C10.2665 12.4615 9.89727 12.3692 9.43573 12.3692ZM24.6665 4.52308V19.4769C24.6665 21.9692 22.6357 24 20.1434 24H5.18958C2.69727 24 0.666504 21.9692 0.666504 19.4769V4.52308C0.666504 2.03077 2.69727 0 5.18958 0H20.1434C22.6357 0 24.6665 2.03077 24.6665 4.52308ZM15.805 8.86154H19.4973V7.93846H15.805V8.86154ZM12.8511 13.8462C12.8511 13.2923 12.7588 12.8308 12.4819 12.3692C12.205 12 11.8357 11.7231 11.2819 11.5385C11.6511 11.3538 12.0204 11.0769 12.205 10.8C12.3896 10.5231 12.4819 10.1538 12.4819 9.69231C12.4819 9.23077 12.3896 8.95385 12.2973 8.58462C12.1127 8.30769 11.928 8.03077 11.7434 7.93846C11.4665 7.75385 11.1896 7.66154 10.8203 7.56923C10.3588 7.38462 9.98958 7.38462 9.52804 7.38462H5.28189V16.4308H9.71266C10.0819 16.4308 10.5434 16.3385 10.9127 16.2462C11.2819 16.1538 11.6511 15.9692 11.928 15.7846C12.205 15.6 12.4819 15.3231 12.6665 14.9538C12.7588 14.6769 12.8511 14.3077 12.8511 13.8462ZM16.1742 13.5692H20.8819C20.8819 13.0154 20.8819 12.5538 20.7896 12.0923C20.6973 11.6308 20.5127 11.1692 20.2357 10.8923C19.9588 10.5231 19.5896 10.2462 19.2204 10.0615C18.7588 9.87692 18.2973 9.69231 17.7434 9.69231C17.2819 9.69231 16.8204 9.78462 16.3588 9.96923C15.9896 10.1538 15.6203 10.4308 15.2511 10.7077C14.9742 10.9846 14.6973 11.3538 14.605 11.8154C14.4204 12.2769 14.328 12.7385 14.328 13.2C14.328 13.6615 14.4204 14.2154 14.605 14.5846C14.7896 15.0462 14.9742 15.4154 15.2511 15.6923C15.528 15.9692 15.8973 16.2462 16.2665 16.4308C16.728 16.6154 17.1896 16.7077 17.6511 16.7077C18.3896 16.7077 19.0357 16.5231 19.5896 16.1538C20.1434 15.7846 20.5127 15.2308 20.7896 14.4923H19.2204C19.128 14.6769 19.0357 14.8615 18.7588 15.0462C18.4819 15.2308 18.205 15.3231 17.8357 15.3231C17.3742 15.3231 16.9127 15.2308 16.6357 14.9538C16.3588 14.5846 16.1742 14.1231 16.1742 13.5692Z" fill="white"/>
</g>
<defs>
<clipPath id="clip0_200_728">
<rect x="0.666504" width="24" height="24" rx="4" fill="white"/>
</clipPath>
</defs>
</svg>
