<svg width="25" height="24" viewBox="0 0 25 24" fill="none" xmlns="http://www.w3.org/2000/svg">
<g clip-path="url(#clip0_199_716)">
<path d="M0.333496 1.719C0.333496 0.7695 1.1225 0 2.096 0H22.571C23.5445 0 24.3335 0.7695 24.3335 1.719V22.281C24.3335 23.2305 23.5445 24 22.571 24H2.096C1.1225 24 0.333496 23.2305 0.333496 22.281V1.719ZM7.748 20.091V9.2535H4.1465V20.091H7.748ZM5.948 7.773C7.2035 7.773 7.985 6.942 7.985 5.901C7.9625 4.8375 7.205 4.029 5.972 4.029C4.739 4.029 3.9335 4.839 3.9335 5.901C3.9335 6.942 4.715 7.773 5.924 7.773H5.948ZM13.31 20.091V14.0385C13.31 13.7145 13.334 13.3905 13.43 13.1595C13.6895 12.513 14.282 11.8425 15.278 11.8425C16.5815 11.8425 17.102 12.8355 17.102 14.2935V20.091H20.7035V13.875C20.7035 10.545 18.9275 8.997 16.5575 8.997C14.6465 8.997 13.79 10.047 13.31 10.7865V10.824H13.286C13.294 10.8115 13.302 10.799 13.31 10.7865V9.2535H9.71C9.755 10.2705 9.71 20.091 9.71 20.091H13.31Z" fill="white"/>
</g>
<defs>
<clipPath id="clip0_199_716">
<rect x="0.333496" width="24" height="24" rx="4" fill="white"/>
</clipPath>
</defs>
</svg>
