<svg width="372" height="469" viewBox="0 0 372 469" fill="none" xmlns="http://www.w3.org/2000/svg">
<g clip-path="url(#clip0_308_442)">
<path d="M0 0C122.76 0 245.52 0 372 0C372 154.77 372 309.54 372 469C249.24 469 126.48 469 0 469C0 314.23 0 159.46 0 0Z" fill="#FEFEFE"/>
<path d="M97 77.9989C114.243 77.9576 131.485 77.9164 149.25 77.8739C154.675 77.8556 160.099 77.8374 165.688 77.8187C172.363 77.8096 172.363 77.8096 175.497 77.808C177.665 77.8049 179.833 77.7979 182 77.7877C185.303 77.7729 188.605 77.7711 191.907 77.7718C193.332 77.761 193.332 77.761 194.786 77.75C215.69 77.8135 233.54 85.5544 248.844 99.7489C262.515 114.014 271.095 132.564 271.14 152.435C271.143 153.163 271.146 153.89 271.149 154.64C271.158 157.067 271.16 159.494 271.161 161.921C271.166 163.666 271.171 165.411 271.176 167.156C271.189 171.89 271.196 176.624 271.2 181.357C271.203 184.319 271.207 187.28 271.212 190.241C271.225 199.518 271.235 208.795 271.239 218.071C271.243 228.759 271.261 239.446 271.29 250.133C271.312 258.408 271.322 266.682 271.323 274.957C271.324 279.892 271.33 284.828 271.348 289.763C271.364 294.411 271.366 299.058 271.358 303.705C271.357 305.403 271.361 307.101 271.371 308.799C271.423 318.249 270.914 326.912 268 335.999C267.7 336.958 267.4 337.918 267.09 338.907C263.271 350.687 256.697 360.288 248 368.999C247.313 369.698 246.626 370.396 245.918 371.116C231.191 385.16 212.077 391.377 192.021 391.226C190.969 391.226 189.917 391.226 188.833 391.227C185.468 391.225 182.103 391.21 178.738 391.194C176.645 391.191 174.551 391.189 172.457 391.188C164.742 391.178 157.027 391.15 149.312 391.124C132.049 391.083 114.786 391.041 97 390.999C97 349.419 97 307.839 97 264.999C116.14 264.999 135.28 264.999 155 264.999C155 285.789 155 306.579 155 327.999C180.694 328.772 180.694 328.772 202 317.999C202.557 317.508 203.114 317.017 203.688 316.511C210.958 309.185 212.439 298.22 212.542 288.317C212.534 287.175 212.526 286.033 212.518 284.856C212.525 283.613 212.532 282.371 212.539 281.091C212.553 277.725 212.55 274.36 212.537 270.994C212.527 267.448 212.537 263.902 212.543 260.355C212.55 254.406 212.541 248.457 212.521 242.508C212.5 235.656 212.507 228.805 212.529 221.954C212.547 216.04 212.549 210.125 212.539 204.21C212.533 200.692 212.532 197.173 212.545 193.655C212.559 189.731 212.54 185.807 212.518 181.883C212.526 180.737 212.534 179.591 212.542 178.41C212.439 168.545 210.179 158.25 203 150.999C195.709 145.191 188.701 141.676 179.316 141.487C178.035 141.454 176.753 141.421 175.432 141.387C173.825 141.362 172.218 141.337 170.562 141.311C165.427 141.208 160.291 141.105 155 140.999C155 161.459 155 181.919 155 202.999C135.86 202.999 116.72 202.999 97 202.999C97 161.749 97 120.499 97 77.9989Z" fill="#010101"/>
</g>
<defs>
<clipPath id="clip0_308_442">
<rect width="372" height="469" fill="white"/>
</clipPath>
</defs>
</svg>
