<svg width="24" height="20" viewBox="0 0 24 20" fill="none" xmlns="http://www.w3.org/2000/svg">
<path d="M21 0.571426H3C2.20461 0.572277 1.44204 0.888621 0.879619 1.45105C0.317195 2.01347 0.000850835 2.77604 0 3.57143V16.4286C0.000850835 17.224 0.317195 17.9865 0.879619 18.549C1.44204 19.1114 2.20461 19.4277 3 19.4286H21C21.7954 19.4277 22.558 19.1114 23.1204 18.549C23.6828 17.9865 23.9991 17.224 24 16.4286V3.57143C23.9991 2.77604 23.6828 2.01347 23.1204 1.45105C22.558 0.888621 21.7954 0.572277 21 0.571426ZM20.2404 5.53375L12.5261 11.5337C12.3756 11.6507 12.1905 11.7142 12 11.7142C11.8095 11.7142 11.6244 11.6507 11.4739 11.5337L3.75964 5.53375C3.66901 5.4653 3.59288 5.37953 3.53568 5.2814C3.47848 5.18328 3.44135 5.07477 3.42646 4.96217C3.41156 4.84958 3.41918 4.73515 3.44889 4.62552C3.4786 4.5159 3.5298 4.41328 3.59952 4.32361C3.66923 4.23395 3.75607 4.15904 3.85499 4.10322C3.95391 4.04741 4.06293 4.01181 4.17572 3.9985C4.28852 3.98519 4.40283 3.99443 4.51203 4.02568C4.62122 4.05693 4.72311 4.10956 4.81179 4.18053L12 9.77125L19.1882 4.18053C19.368 4.0448 19.5939 3.98526 19.8172 4.01481C20.0405 4.04435 20.2432 4.16061 20.3814 4.33842C20.5197 4.51624 20.5824 4.74133 20.556 4.96501C20.5296 5.1887 20.4162 5.39301 20.2404 5.53375Z" fill="white"/>
</svg>
